<?xml version="1.0" encoding="utf-8" standalone="no"?>
<!DOCTYPE svg PUBLIC "-//W3C//DTD SVG 1.1//EN"
  "http://www.w3.org/Graphics/SVG/1.1/DTD/svg11.dtd">
<svg xmlns:xlink="http://www.w3.org/1999/xlink" width="460.8pt" height="345.6pt" viewBox="0 0 460.8 345.6" xmlns="http://www.w3.org/2000/svg" version="1.1">
 <metadata>
  <rdf:RDF xmlns:dc="http://purl.org/dc/elements/1.1/" xmlns:cc="http://creativecommons.org/ns#" xmlns:rdf="http://www.w3.org/1999/02/22-rdf-syntax-ns#">
   <cc:Work>
    <dc:type rdf:resource="http://purl.org/dc/dcmitype/StillImage"/>
    <dc:date>2023-10-13T13:46:54.018461</dc:date>
    <dc:format>image/svg+xml</dc:format>
    <dc:creator>
     <cc:Agent>
      <dc:title>Matplotlib v3.5.2, https://matplotlib.org/</dc:title>
     </cc:Agent>
    </dc:creator>
   </cc:Work>
  </rdf:RDF>
 </metadata>
 <defs>
  <style type="text/css">*{stroke-linejoin: round; stroke-linecap: butt}</style>
 </defs>
 <g id="figure_1">
  <g id="patch_1">
   <path d="M 0 345.6 
L 460.8 345.6 
L 460.8 0 
L 0 0 
z
" style="fill: #ffffff"/>
  </g>
  <g id="axes_1">
   <g id="patch_2">
    <path d="M 208.309091 143.345455 
L 252.490909 143.345455 
L 252.490909 113.890909 
L 208.309091 113.890909 
L 208.309091 143.345455 
z
" clip-path="url(#peaaf170f6a)" style="fill: none; stroke: #000000; stroke-linejoin: miter"/>
   </g>
   <g id="patch_3">
    <path d="M 230.4 54.981818 
C 234.305718 54.981818 238.051994 53.43006 240.813754 50.6683 
C 243.575514 47.90654 245.127273 44.160264 245.127273 40.254545 
C 245.127273 36.348827 243.575514 32.602551 240.813754 29.840791 
C 238.051994 27.079031 234.305718 25.527273 230.4 25.527273 
C 226.494282 25.527273 222.748006 27.079031 219.986246 29.840791 
C 217.224486 32.602551 215.672727 36.348827 215.672727 40.254545 
C 215.672727 44.160264 217.224486 47.90654 219.986246 50.6683 
C 222.748006 53.43006 226.494282 54.981818 230.4 54.981818 
L 230.4 54.981818 
z
" clip-path="url(#peaaf170f6a)" style="fill: none; stroke: #000000; stroke-linejoin: miter"/>
   </g>
   <g id="patch_4">
    <path d="M 119.945455 143.345455 
L 164.127273 143.345455 
L 164.127273 113.890909 
L 119.945455 113.890909 
L 119.945455 143.345455 
z
" clip-path="url(#peaaf170f6a)" style="fill: none; stroke: #000000; stroke-linejoin: miter"/>
   </g>
   <g id="patch_5">
    <path d="M 296.672727 143.345455 
L 340.854545 143.345455 
L 340.854545 113.890909 
L 296.672727 113.890909 
L 296.672727 143.345455 
z
" clip-path="url(#peaaf170f6a)" style="fill: none; stroke: #000000; stroke-linejoin: miter"/>
   </g>
   <g id="patch_6">
    <path d="M 230.4 239.072727 
L 252.490909 216.981818 
L 230.4 194.890909 
L 208.309091 216.981818 
L 230.4 239.072727 
z
" clip-path="url(#peaaf170f6a)" style="fill: none; stroke: #000000; stroke-linejoin: miter"/>
   </g>
   <g id="patch_7">
    <path d="M 230.4 320.072727 
C 234.305718 320.072727 238.051994 318.520969 240.813754 315.759209 
C 243.575514 312.997449 245.127273 309.251173 245.127273 305.345455 
C 245.127273 301.439736 243.575514 297.69346 240.813754 294.9317 
C 238.051994 292.16994 234.305718 290.618182 230.4 290.618182 
C 226.494282 290.618182 222.748006 292.16994 219.986246 294.9317 
C 217.224486 297.69346 215.672727 301.439736 215.672727 305.345455 
C 215.672727 309.251173 217.224486 312.997449 219.986246 315.759209 
C 222.748006 318.520969 226.494282 320.072727 230.4 320.072727 
L 230.4 320.072727 
z
" clip-path="url(#peaaf170f6a)" style="fill: none; stroke: #000000; stroke-linejoin: miter"/>
   </g>
   <g id="patch_8">
    <path d="M 230.4 113.890909 
L 227.454545 105.054545 
L 230.252727 105.054545 
L 230.252727 54.981818 
L 230.547273 54.981818 
L 230.547273 105.054545 
L 233.345455 105.054545 
z
" clip-path="url(#peaaf170f6a)"/>
   </g>
   <g id="patch_9">
    <path d="M 164.127273 128.618182 
L 172.963636 125.672727 
L 172.963636 128.470909 
L 208.309091 128.470909 
L 208.309091 128.765455 
L 172.963636 128.765455 
L 172.963636 131.563636 
z
" clip-path="url(#peaaf170f6a)"/>
   </g>
   <g id="patch_10">
    <path d="M 296.672727 128.618182 
L 287.836364 131.563636 
L 287.836364 128.765455 
L 252.490909 128.765455 
L 252.490909 128.470909 
L 287.836364 128.470909 
L 287.836364 125.672727 
z
" clip-path="url(#peaaf170f6a)"/>
   </g>
   <g id="patch_11">
    <path d="M 230.4 194.890909 
L 227.454545 186.054545 
L 230.252727 186.054545 
L 230.252727 143.345455 
L 230.547273 143.345455 
L 230.547273 186.054545 
L 233.345455 186.054545 
z
" clip-path="url(#peaaf170f6a)"/>
   </g>
   <g id="patch_12">
    <path d="M 164.127273 128.618182 
L 166.035439 119.501388 
L 168.452449 120.911311 
L 215.545516 40.180339 
L 215.799938 40.328752 
L 168.706871 121.059724 
L 171.123882 122.469647 
z
" clip-path="url(#peaaf170f6a)"/>
   </g>
   <g id="patch_13">
    <path d="M 208.309091 216.981818 
L 201.722854 210.395582 
L 204.225624 209.144197 
L 163.995548 128.684044 
L 164.258997 128.552319 
L 204.489074 209.012472 
L 206.991844 207.761087 
z
" clip-path="url(#peaaf170f6a)"/>
   </g>
   <g id="patch_14">
    <path d="M 252.490909 216.981818 
L 253.808156 207.761087 
L 256.310926 209.012472 
L 296.541003 128.552319 
L 296.804452 128.684044 
L 256.574376 209.144197 
L 259.077146 210.395582 
z
" clip-path="url(#peaaf170f6a)"/>
   </g>
   <g id="patch_15">
    <path d="M 296.672727 128.618182 
L 289.676118 122.469647 
L 292.093129 121.059724 
L 245.000062 40.328752 
L 245.254484 40.180339 
L 292.347551 120.911311 
L 294.764561 119.501388 
z
" clip-path="url(#peaaf170f6a)"/>
   </g>
   <g id="patch_16">
    <path d="M 230.4 290.618182 
L 227.454545 281.781818 
L 230.252727 281.781818 
L 230.252727 239.072727 
L 230.547273 239.072727 
L 230.547273 281.781818 
L 233.345455 281.781818 
z
" clip-path="url(#peaaf170f6a)"/>
   </g>
   <g id="text_1">
    <!-- Process 1 -->
    <g transform="translate(211.411875 130.825682)scale(0.08 -0.08)">
     <defs>
      <path id="DejaVuSans-50" d="M 1259 4147 
L 1259 2394 
L 2053 2394 
Q 2494 2394 2734 2622 
Q 2975 2850 2975 3272 
Q 2975 3691 2734 3919 
Q 2494 4147 2053 4147 
L 1259 4147 
z
M 628 4666 
L 2053 4666 
Q 2838 4666 3239 4311 
Q 3641 3956 3641 3272 
Q 3641 2581 3239 2228 
Q 2838 1875 2053 1875 
L 1259 1875 
L 1259 0 
L 628 0 
L 628 4666 
z
" transform="scale(0.015625)"/>
      <path id="DejaVuSans-72" d="M 2631 2963 
Q 2534 3019 2420 3045 
Q 2306 3072 2169 3072 
Q 1681 3072 1420 2755 
Q 1159 2438 1159 1844 
L 1159 0 
L 581 0 
L 581 3500 
L 1159 3500 
L 1159 2956 
Q 1341 3275 1631 3429 
Q 1922 3584 2338 3584 
Q 2397 3584 2469 3576 
Q 2541 3569 2628 3553 
L 2631 2963 
z
" transform="scale(0.015625)"/>
      <path id="DejaVuSans-6f" d="M 1959 3097 
Q 1497 3097 1228 2736 
Q 959 2375 959 1747 
Q 959 1119 1226 758 
Q 1494 397 1959 397 
Q 2419 397 2687 759 
Q 2956 1122 2956 1747 
Q 2956 2369 2687 2733 
Q 2419 3097 1959 3097 
z
M 1959 3584 
Q 2709 3584 3137 3096 
Q 3566 2609 3566 1747 
Q 3566 888 3137 398 
Q 2709 -91 1959 -91 
Q 1206 -91 779 398 
Q 353 888 353 1747 
Q 353 2609 779 3096 
Q 1206 3584 1959 3584 
z
" transform="scale(0.015625)"/>
      <path id="DejaVuSans-63" d="M 3122 3366 
L 3122 2828 
Q 2878 2963 2633 3030 
Q 2388 3097 2138 3097 
Q 1578 3097 1268 2742 
Q 959 2388 959 1747 
Q 959 1106 1268 751 
Q 1578 397 2138 397 
Q 2388 397 2633 464 
Q 2878 531 3122 666 
L 3122 134 
Q 2881 22 2623 -34 
Q 2366 -91 2075 -91 
Q 1284 -91 818 406 
Q 353 903 353 1747 
Q 353 2603 823 3093 
Q 1294 3584 2113 3584 
Q 2378 3584 2631 3529 
Q 2884 3475 3122 3366 
z
" transform="scale(0.015625)"/>
      <path id="DejaVuSans-65" d="M 3597 1894 
L 3597 1613 
L 953 1613 
Q 991 1019 1311 708 
Q 1631 397 2203 397 
Q 2534 397 2845 478 
Q 3156 559 3463 722 
L 3463 178 
Q 3153 47 2828 -22 
Q 2503 -91 2169 -91 
Q 1331 -91 842 396 
Q 353 884 353 1716 
Q 353 2575 817 3079 
Q 1281 3584 2069 3584 
Q 2775 3584 3186 3129 
Q 3597 2675 3597 1894 
z
M 3022 2063 
Q 3016 2534 2758 2815 
Q 2500 3097 2075 3097 
Q 1594 3097 1305 2825 
Q 1016 2553 972 2059 
L 3022 2063 
z
" transform="scale(0.015625)"/>
      <path id="DejaVuSans-73" d="M 2834 3397 
L 2834 2853 
Q 2591 2978 2328 3040 
Q 2066 3103 1784 3103 
Q 1356 3103 1142 2972 
Q 928 2841 928 2578 
Q 928 2378 1081 2264 
Q 1234 2150 1697 2047 
L 1894 2003 
Q 2506 1872 2764 1633 
Q 3022 1394 3022 966 
Q 3022 478 2636 193 
Q 2250 -91 1575 -91 
Q 1294 -91 989 -36 
Q 684 19 347 128 
L 347 722 
Q 666 556 975 473 
Q 1284 391 1588 391 
Q 1994 391 2212 530 
Q 2431 669 2431 922 
Q 2431 1156 2273 1281 
Q 2116 1406 1581 1522 
L 1381 1569 
Q 847 1681 609 1914 
Q 372 2147 372 2553 
Q 372 3047 722 3315 
Q 1072 3584 1716 3584 
Q 2034 3584 2315 3537 
Q 2597 3491 2834 3397 
z
" transform="scale(0.015625)"/>
      <path id="DejaVuSans-20" transform="scale(0.015625)"/>
      <path id="DejaVuSans-31" d="M 794 531 
L 1825 531 
L 1825 4091 
L 703 3866 
L 703 4441 
L 1819 4666 
L 2450 4666 
L 2450 531 
L 3481 531 
L 3481 0 
L 794 0 
L 794 531 
z
" transform="scale(0.015625)"/>
     </defs>
     <use xlink:href="#DejaVuSans-50"/>
     <use xlink:href="#DejaVuSans-72" x="58.552734"/>
     <use xlink:href="#DejaVuSans-6f" x="97.416016"/>
     <use xlink:href="#DejaVuSans-63" x="158.597656"/>
     <use xlink:href="#DejaVuSans-65" x="213.578125"/>
     <use xlink:href="#DejaVuSans-73" x="275.101562"/>
     <use xlink:href="#DejaVuSans-73" x="327.201172"/>
     <use xlink:href="#DejaVuSans-20" x="379.300781"/>
     <use xlink:href="#DejaVuSans-31" x="411.087891"/>
    </g>
   </g>
   <g id="text_2">
    <!-- Start -->
    <g transform="translate(220.62875 42.462045)scale(0.08 -0.08)">
     <defs>
      <path id="DejaVuSans-53" d="M 3425 4513 
L 3425 3897 
Q 3066 4069 2747 4153 
Q 2428 4238 2131 4238 
Q 1616 4238 1336 4038 
Q 1056 3838 1056 3469 
Q 1056 3159 1242 3001 
Q 1428 2844 1947 2747 
L 2328 2669 
Q 3034 2534 3370 2195 
Q 3706 1856 3706 1288 
Q 3706 609 3251 259 
Q 2797 -91 1919 -91 
Q 1588 -91 1214 -16 
Q 841 59 441 206 
L 441 856 
Q 825 641 1194 531 
Q 1563 422 1919 422 
Q 2459 422 2753 634 
Q 3047 847 3047 1241 
Q 3047 1584 2836 1778 
Q 2625 1972 2144 2069 
L 1759 2144 
Q 1053 2284 737 2584 
Q 422 2884 422 3419 
Q 422 4038 858 4394 
Q 1294 4750 2059 4750 
Q 2388 4750 2728 4690 
Q 3069 4631 3425 4513 
z
" transform="scale(0.015625)"/>
      <path id="DejaVuSans-74" d="M 1172 4494 
L 1172 3500 
L 2356 3500 
L 2356 3053 
L 1172 3053 
L 1172 1153 
Q 1172 725 1289 603 
Q 1406 481 1766 481 
L 2356 481 
L 2356 0 
L 1766 0 
Q 1100 0 847 248 
Q 594 497 594 1153 
L 594 3053 
L 172 3053 
L 172 3500 
L 594 3500 
L 594 4494 
L 1172 4494 
z
" transform="scale(0.015625)"/>
      <path id="DejaVuSans-61" d="M 2194 1759 
Q 1497 1759 1228 1600 
Q 959 1441 959 1056 
Q 959 750 1161 570 
Q 1363 391 1709 391 
Q 2188 391 2477 730 
Q 2766 1069 2766 1631 
L 2766 1759 
L 2194 1759 
z
M 3341 1997 
L 3341 0 
L 2766 0 
L 2766 531 
Q 2569 213 2275 61 
Q 1981 -91 1556 -91 
Q 1019 -91 701 211 
Q 384 513 384 1019 
Q 384 1609 779 1909 
Q 1175 2209 1959 2209 
L 2766 2209 
L 2766 2266 
Q 2766 2663 2505 2880 
Q 2244 3097 1772 3097 
Q 1472 3097 1187 3025 
Q 903 2953 641 2809 
L 641 3341 
Q 956 3463 1253 3523 
Q 1550 3584 1831 3584 
Q 2591 3584 2966 3190 
Q 3341 2797 3341 1997 
z
" transform="scale(0.015625)"/>
     </defs>
     <use xlink:href="#DejaVuSans-53"/>
     <use xlink:href="#DejaVuSans-74" x="63.476562"/>
     <use xlink:href="#DejaVuSans-61" x="102.685547"/>
     <use xlink:href="#DejaVuSans-72" x="163.964844"/>
     <use xlink:href="#DejaVuSans-74" x="205.078125"/>
    </g>
   </g>
   <g id="text_3">
    <!-- Process 2 -->
    <g transform="translate(123.048239 130.825682)scale(0.08 -0.08)">
     <defs>
      <path id="DejaVuSans-32" d="M 1228 531 
L 3431 531 
L 3431 0 
L 469 0 
L 469 531 
Q 828 903 1448 1529 
Q 2069 2156 2228 2338 
Q 2531 2678 2651 2914 
Q 2772 3150 2772 3378 
Q 2772 3750 2511 3984 
Q 2250 4219 1831 4219 
Q 1534 4219 1204 4116 
Q 875 4013 500 3803 
L 500 4441 
Q 881 4594 1212 4672 
Q 1544 4750 1819 4750 
Q 2544 4750 2975 4387 
Q 3406 4025 3406 3419 
Q 3406 3131 3298 2873 
Q 3191 2616 2906 2266 
Q 2828 2175 2409 1742 
Q 1991 1309 1228 531 
z
" transform="scale(0.015625)"/>
     </defs>
     <use xlink:href="#DejaVuSans-50"/>
     <use xlink:href="#DejaVuSans-72" x="58.552734"/>
     <use xlink:href="#DejaVuSans-6f" x="97.416016"/>
     <use xlink:href="#DejaVuSans-63" x="158.597656"/>
     <use xlink:href="#DejaVuSans-65" x="213.578125"/>
     <use xlink:href="#DejaVuSans-73" x="275.101562"/>
     <use xlink:href="#DejaVuSans-73" x="327.201172"/>
     <use xlink:href="#DejaVuSans-20" x="379.300781"/>
     <use xlink:href="#DejaVuSans-32" x="411.087891"/>
    </g>
   </g>
   <g id="text_4">
    <!-- Process 3 -->
    <g transform="translate(299.775511 130.825682)scale(0.08 -0.08)">
     <defs>
      <path id="DejaVuSans-33" d="M 2597 2516 
Q 3050 2419 3304 2112 
Q 3559 1806 3559 1356 
Q 3559 666 3084 287 
Q 2609 -91 1734 -91 
Q 1441 -91 1130 -33 
Q 819 25 488 141 
L 488 750 
Q 750 597 1062 519 
Q 1375 441 1716 441 
Q 2309 441 2620 675 
Q 2931 909 2931 1356 
Q 2931 1769 2642 2001 
Q 2353 2234 1838 2234 
L 1294 2234 
L 1294 2753 
L 1863 2753 
Q 2328 2753 2575 2939 
Q 2822 3125 2822 3475 
Q 2822 3834 2567 4026 
Q 2313 4219 1838 4219 
Q 1578 4219 1281 4162 
Q 984 4106 628 3988 
L 628 4550 
Q 988 4650 1302 4700 
Q 1616 4750 1894 4750 
Q 2613 4750 3031 4423 
Q 3450 4097 3450 3541 
Q 3450 3153 3228 2886 
Q 3006 2619 2597 2516 
z
" transform="scale(0.015625)"/>
     </defs>
     <use xlink:href="#DejaVuSans-50"/>
     <use xlink:href="#DejaVuSans-72" x="58.552734"/>
     <use xlink:href="#DejaVuSans-6f" x="97.416016"/>
     <use xlink:href="#DejaVuSans-63" x="158.597656"/>
     <use xlink:href="#DejaVuSans-65" x="213.578125"/>
     <use xlink:href="#DejaVuSans-73" x="275.101562"/>
     <use xlink:href="#DejaVuSans-73" x="327.201172"/>
     <use xlink:href="#DejaVuSans-20" x="379.300781"/>
     <use xlink:href="#DejaVuSans-33" x="411.087891"/>
    </g>
   </g>
   <g id="text_5">
    <!-- Decision -->
    <g transform="translate(213.370625 219.189318)scale(0.08 -0.08)">
     <defs>
      <path id="DejaVuSans-44" d="M 1259 4147 
L 1259 519 
L 2022 519 
Q 2988 519 3436 956 
Q 3884 1394 3884 2338 
Q 3884 3275 3436 3711 
Q 2988 4147 2022 4147 
L 1259 4147 
z
M 628 4666 
L 1925 4666 
Q 3281 4666 3915 4102 
Q 4550 3538 4550 2338 
Q 4550 1131 3912 565 
Q 3275 0 1925 0 
L 628 0 
L 628 4666 
z
" transform="scale(0.015625)"/>
      <path id="DejaVuSans-69" d="M 603 3500 
L 1178 3500 
L 1178 0 
L 603 0 
L 603 3500 
z
M 603 4863 
L 1178 4863 
L 1178 4134 
L 603 4134 
L 603 4863 
z
" transform="scale(0.015625)"/>
      <path id="DejaVuSans-6e" d="M 3513 2113 
L 3513 0 
L 2938 0 
L 2938 2094 
Q 2938 2591 2744 2837 
Q 2550 3084 2163 3084 
Q 1697 3084 1428 2787 
Q 1159 2491 1159 1978 
L 1159 0 
L 581 0 
L 581 3500 
L 1159 3500 
L 1159 2956 
Q 1366 3272 1645 3428 
Q 1925 3584 2291 3584 
Q 2894 3584 3203 3211 
Q 3513 2838 3513 2113 
z
" transform="scale(0.015625)"/>
     </defs>
     <use xlink:href="#DejaVuSans-44"/>
     <use xlink:href="#DejaVuSans-65" x="77.001953"/>
     <use xlink:href="#DejaVuSans-63" x="138.525391"/>
     <use xlink:href="#DejaVuSans-69" x="193.505859"/>
     <use xlink:href="#DejaVuSans-73" x="221.289062"/>
     <use xlink:href="#DejaVuSans-69" x="273.388672"/>
     <use xlink:href="#DejaVuSans-6f" x="301.171875"/>
     <use xlink:href="#DejaVuSans-6e" x="362.353516"/>
    </g>
   </g>
   <g id="text_6">
    <!-- Stop -->
    <g transform="translate(221.305625 307.552955)scale(0.08 -0.08)">
     <defs>
      <path id="DejaVuSans-70" d="M 1159 525 
L 1159 -1331 
L 581 -1331 
L 581 3500 
L 1159 3500 
L 1159 2969 
Q 1341 3281 1617 3432 
Q 1894 3584 2278 3584 
Q 2916 3584 3314 3078 
Q 3713 2572 3713 1747 
Q 3713 922 3314 415 
Q 2916 -91 2278 -91 
Q 1894 -91 1617 61 
Q 1341 213 1159 525 
z
M 3116 1747 
Q 3116 2381 2855 2742 
Q 2594 3103 2138 3103 
Q 1681 3103 1420 2742 
Q 1159 2381 1159 1747 
Q 1159 1113 1420 752 
Q 1681 391 2138 391 
Q 2594 391 2855 752 
Q 3116 1113 3116 1747 
z
" transform="scale(0.015625)"/>
     </defs>
     <use xlink:href="#DejaVuSans-53"/>
     <use xlink:href="#DejaVuSans-74" x="63.476562"/>
     <use xlink:href="#DejaVuSans-6f" x="102.685547"/>
     <use xlink:href="#DejaVuSans-70" x="163.867188"/>
    </g>
   </g>
   <g id="text_7">
    <!-- S1&gt;P1 -->
    <g transform="translate(230.4 82.772614)scale(0.08 -0.08)">
     <defs>
      <path id="DejaVuSans-3e" d="M 678 3150 
L 678 3719 
L 4684 2266 
L 4684 1747 
L 678 294 
L 678 863 
L 3897 2003 
L 678 3150 
z
" transform="scale(0.015625)"/>
     </defs>
     <use xlink:href="#DejaVuSans-53"/>
     <use xlink:href="#DejaVuSans-31" x="63.476562"/>
     <use xlink:href="#DejaVuSans-3e" x="127.099609"/>
     <use xlink:href="#DejaVuSans-50" x="210.888672"/>
     <use xlink:href="#DejaVuSans-31" x="271.191406"/>
    </g>
   </g>
   <g id="text_8">
    <!-- P1&gt;P2 -->
    <g transform="translate(172.952557 126.954432)scale(0.08 -0.08)">
     <use xlink:href="#DejaVuSans-50"/>
     <use xlink:href="#DejaVuSans-31" x="60.302734"/>
     <use xlink:href="#DejaVuSans-3e" x="123.925781"/>
     <use xlink:href="#DejaVuSans-50" x="207.714844"/>
     <use xlink:href="#DejaVuSans-32" x="268.017578"/>
    </g>
   </g>
   <g id="text_9">
    <!-- P1&gt;P3 -->
    <g transform="translate(261.316193 126.954432)scale(0.08 -0.08)">
     <use xlink:href="#DejaVuSans-50"/>
     <use xlink:href="#DejaVuSans-31" x="60.302734"/>
     <use xlink:href="#DejaVuSans-3e" x="123.925781"/>
     <use xlink:href="#DejaVuSans-50" x="207.714844"/>
     <use xlink:href="#DejaVuSans-33" x="268.017578"/>
    </g>
   </g>
   <g id="text_10">
    <!-- P1&gt;D -->
    <g transform="translate(230.4 167.454432)scale(0.08 -0.08)">
     <use xlink:href="#DejaVuSans-50"/>
     <use xlink:href="#DejaVuSans-31" x="60.302734"/>
     <use xlink:href="#DejaVuSans-3e" x="123.925781"/>
     <use xlink:href="#DejaVuSans-44" x="207.714844"/>
    </g>
   </g>
   <g id="text_11">
    <!-- S&gt;P2 -->
    <g transform="translate(179.051875 82.772614)scale(0.08 -0.08)">
     <use xlink:href="#DejaVuSans-53"/>
     <use xlink:href="#DejaVuSans-3e" x="63.476562"/>
     <use xlink:href="#DejaVuSans-50" x="147.265625"/>
     <use xlink:href="#DejaVuSans-32" x="207.568359"/>
    </g>
   </g>
   <g id="text_12">
    <!-- P2&gt;D -->
    <g transform="translate(174.829432 171.13625)scale(0.08 -0.08)">
     <use xlink:href="#DejaVuSans-50"/>
     <use xlink:href="#DejaVuSans-32" x="60.302734"/>
     <use xlink:href="#DejaVuSans-3e" x="123.925781"/>
     <use xlink:href="#DejaVuSans-44" x="207.714844"/>
    </g>
   </g>
   <g id="text_13">
    <!-- P3&gt;D -->
    <g transform="translate(263.193068 171.13625)scale(0.08 -0.08)">
     <use xlink:href="#DejaVuSans-50"/>
     <use xlink:href="#DejaVuSans-33" x="60.302734"/>
     <use xlink:href="#DejaVuSans-3e" x="123.925781"/>
     <use xlink:href="#DejaVuSans-44" x="207.714844"/>
    </g>
   </g>
   <g id="text_14">
    <!-- S&gt;P3 -->
    <g transform="translate(260.051875 82.772614)scale(0.08 -0.08)">
     <use xlink:href="#DejaVuSans-53"/>
     <use xlink:href="#DejaVuSans-3e" x="63.476562"/>
     <use xlink:href="#DejaVuSans-50" x="147.265625"/>
     <use xlink:href="#DejaVuSans-33" x="207.568359"/>
    </g>
   </g>
   <g id="text_15">
    <!-- D&gt;St -->
    <g transform="translate(230.4 263.181705)scale(0.08 -0.08)">
     <use xlink:href="#DejaVuSans-44"/>
     <use xlink:href="#DejaVuSans-3e" x="77.001953"/>
     <use xlink:href="#DejaVuSans-53" x="160.791016"/>
     <use xlink:href="#DejaVuSans-74" x="224.267578"/>
    </g>
   </g>
  </g>
 </g>
 <defs>
  <clipPath id="peaaf170f6a">
   <rect x="108.9" y="10.8" width="243" height="324"/>
  </clipPath>
 </defs>
</svg>
